<?xml version="1.0" encoding="utf-8"?>
<!-- Generator: Adobe Illustrator 16.0.0, SVG Export Plug-In . SVG Version: 6.00 Build 0)  -->
<!DOCTYPE svg PUBLIC "-//W3C//DTD SVG 1.1//EN" "http://www.w3.org/Graphics/SVG/1.1/DTD/svg11.dtd">
<svg version="1.1" id="Layer_1" xmlns="http://www.w3.org/2000/svg" xmlns:xlink="http://www.w3.org/1999/xlink" x="0px" y="0px"
	 width="120px" height="120px" viewBox="0 0 120 120" enable-background="new 0 0 120 120" xml:space="preserve">
<g>
	<path fill="#66615B" d="M81.416,85.898c-8.248,8.246-21.629,8.246-29.867,0.008c-8.247-8.236-8.237-21.607,0.003-29.855
		L95.74,11.861C85.744,4.412,73.35,0,59.925,0C28.142,0,2.146,24.719,0.075,55.979c2.157,0,3.851,0,3.854,0
		c2.096,0,3.796,1.701,3.796,3.797c0,0.014-0.004,0.027-0.004,0.041c0.015,0,0.028-0.004,0.042-0.004
		c0.187,0,0.363,0.027,0.543,0.053c-0.002-0.029-0.01-0.059-0.01-0.09c0-1.822,1.478-3.301,3.301-3.301s3.301,1.479,3.301,3.301
		c0,0.32-0.058,0.623-0.144,0.914c0.218-0.049,0.444-0.082,0.678-0.082c0.505,0,0.972,0.137,1.388,0.355
		c-0.174-0.359-0.281-0.76-0.281-1.188c0-1.506,1.221-2.729,2.729-2.729c1.507,0,2.728,1.223,2.728,2.729
		c0,1.508-1.221,2.729-2.728,2.729c-0.428,0-0.828-0.105-1.189-0.281c0.219,0.416,0.355,0.885,0.355,1.389
		c0,0.502-0.136,0.969-0.354,1.387c0.361-0.176,0.76-0.283,1.188-0.283c1.507,0,2.728,1.223,2.728,2.73s-1.221,2.73-2.728,2.73
		c-0.428,0-0.827-0.107-1.188-0.283c0.218,0.416,0.354,0.885,0.354,1.387s-0.136,0.971-0.355,1.389
		c0.361-0.176,0.761-0.283,1.189-0.283c1.507,0,2.728,1.223,2.728,2.729c0,1.508-1.221,2.73-2.728,2.73
		c-0.428,0-0.828-0.107-1.189-0.283c0.219,0.416,0.355,0.885,0.355,1.389c0,0.502-0.136,0.971-0.354,1.387
		c0.361-0.176,0.76-0.283,1.188-0.283c1.507,0,2.728,1.223,2.728,2.73s-1.221,2.73-2.728,2.73c-0.428,0-0.827-0.107-1.188-0.283
		c0.218,0.416,0.354,0.885,0.354,1.387c0,0.504-0.136,0.971-0.355,1.389c0.361-0.176,0.761-0.283,1.189-0.283
		c1.507,0,2.728,1.223,2.728,2.729c0,1.508-1.221,2.73-2.728,2.73c-1.508,0-2.729-1.223-2.729-2.73c0-0.426,0.107-0.826,0.281-1.186
		c-0.416,0.219-0.883,0.355-1.388,0.355c-0.234,0-0.46-0.033-0.678-0.084c0.086,0.293,0.144,0.596,0.144,0.914
		c0,1.822-1.478,3.303-3.301,3.303c0,0-0.485,0-1.277,0C21.119,109.596,39.307,120,59.925,120c33.137,0,60-26.863,60-60
		c0-3.934-0.391-7.775-1.113-11.498L81.416,85.898z M26.934,57.521c1.246,0,2.256,1.01,2.256,2.254c0,1.246-1.01,2.256-2.256,2.256
		c-1.245,0-2.255-1.01-2.255-2.256C24.679,58.531,25.689,57.521,26.934,57.521z M26.934,77.369c-1.245,0-2.255-1.01-2.255-2.256
		c0-1.244,1.01-2.254,2.255-2.254c1.246,0,2.256,1.01,2.256,2.254C29.19,76.359,28.18,77.369,26.934,77.369z M29.19,82.783
		c0,1.246-1.01,2.256-2.256,2.256c-1.245,0-2.255-1.01-2.255-2.256s1.01-2.256,2.255-2.256C28.18,80.527,29.19,81.537,29.19,82.783z
		 M26.934,69.701c-1.245,0-2.255-1.01-2.255-2.256s1.01-2.256,2.255-2.256c1.246,0,2.256,1.01,2.256,2.256
		S28.18,69.701,26.934,69.701z M20.62,63.611c0-1.371,1.11-2.482,2.48-2.482c1.371,0,2.48,1.111,2.48,2.482
		c0,1.369-1.11,2.48-2.48,2.48C21.73,66.092,20.62,64.98,20.62,63.611z M20.62,71.279c0-1.369,1.11-2.48,2.48-2.48
		c1.371,0,2.48,1.111,2.48,2.48s-1.11,2.48-2.48,2.48C21.73,73.76,20.62,72.648,20.62,71.279z M20.62,78.949
		c0-1.371,1.11-2.482,2.48-2.482c1.371,0,2.48,1.111,2.48,2.482c0,1.369-1.11,2.48-2.48,2.48C21.73,81.43,20.62,80.318,20.62,78.949
		z M20.62,86.617c0-1.369,1.11-2.48,2.48-2.48c1.371,0,2.48,1.111,2.48,2.48s-1.11,2.48-2.48,2.48
		C21.73,89.098,20.62,87.986,20.62,86.617z M26.934,92.707c-1.245,0-2.255-1.01-2.255-2.256c0-1.244,1.01-2.254,2.255-2.254
		c1.246,0,2.256,1.01,2.256,2.254C29.19,91.697,28.18,92.707,26.934,92.707z M30.769,88.422c-0.996,0-1.804-0.807-1.804-1.805
		c0-0.996,0.808-1.805,1.804-1.805c0.997,0,1.804,0.809,1.804,1.805C32.573,87.615,31.766,88.422,30.769,88.422z M30.769,80.752
		c-0.996,0-1.804-0.809-1.804-1.803c0-0.998,0.808-1.805,1.804-1.805c0.997,0,1.804,0.807,1.804,1.805
		C32.573,79.943,31.766,80.752,30.769,80.752z M30.769,73.084c-0.996,0-1.804-0.807-1.804-1.805c0-0.996,0.808-1.805,1.804-1.805
		c0.997,0,1.804,0.809,1.804,1.805C32.573,72.277,31.766,73.084,30.769,73.084z M30.769,65.414c-0.996,0-1.804-0.809-1.804-1.803
		c0-0.998,0.808-1.805,1.804-1.805c0.997,0,1.804,0.807,1.804,1.805C32.573,64.605,31.766,65.414,30.769,65.414z M34.604,92.143
		c-0.935,0-1.692-0.756-1.692-1.691c0-0.934,0.757-1.691,1.692-1.691c0.933,0,1.691,0.758,1.691,1.691
		C36.296,91.387,35.538,92.143,34.604,92.143z M32.913,82.783c0-0.934,0.757-1.691,1.692-1.691c0.933,0,1.689,0.758,1.689,1.691
		s-0.756,1.691-1.689,1.691C33.67,84.475,32.913,83.717,32.913,82.783z M34.604,76.805c-0.935,0-1.692-0.756-1.692-1.691
		c0-0.934,0.757-1.691,1.692-1.691c0.933,0,1.691,0.758,1.691,1.691C36.296,76.049,35.538,76.805,34.604,76.805z M32.913,67.445
		c0-0.934,0.757-1.691,1.692-1.691c0.933,0,1.689,0.758,1.689,1.691c0,0.932-0.756,1.691-1.689,1.691
		C33.67,69.137,32.913,68.377,32.913,67.445z M34.604,61.467c-0.935,0-1.692-0.756-1.692-1.691c0-0.934,0.757-1.691,1.692-1.691
		c0.933,0,1.691,0.758,1.691,1.691C36.296,60.711,35.538,61.467,34.604,61.467z M38.438,87.971c-0.747,0-1.352-0.605-1.352-1.354
		c0-0.746,0.605-1.352,1.352-1.352c0.747,0,1.352,0.605,1.352,1.352C39.79,87.365,39.185,87.971,38.438,87.971z M38.438,80.301
		c-0.747,0-1.352-0.605-1.352-1.352c0-0.748,0.605-1.355,1.352-1.355c0.747,0,1.352,0.607,1.352,1.355
		C39.79,79.695,39.185,80.301,38.438,80.301z M38.438,72.633c-0.747,0-1.352-0.605-1.352-1.354c0-0.746,0.605-1.354,1.352-1.354
		c0.747,0,1.352,0.607,1.352,1.354C39.79,72.027,39.185,72.633,38.438,72.633z M38.438,64.963c-0.747,0-1.352-0.607-1.352-1.352
		c0-0.748,0.605-1.355,1.352-1.355c0.747,0,1.352,0.607,1.352,1.355C39.79,64.355,39.185,64.963,38.438,64.963z M42.272,91.607
		c-0.637,0-1.155-0.518-1.155-1.156c0-0.637,0.518-1.154,1.155-1.154c0.638,0,1.155,0.518,1.155,1.154
		C43.427,91.09,42.91,91.607,42.272,91.607z M42.272,83.938c-0.637,0-1.155-0.516-1.155-1.154s0.518-1.156,1.155-1.156
		c0.638,0,1.155,0.518,1.155,1.156S42.91,83.938,42.272,83.938z M42.272,76.27c-0.637,0-1.155-0.518-1.155-1.156
		s0.518-1.154,1.155-1.154c0.638,0,1.155,0.516,1.155,1.154S42.91,76.27,42.272,76.27z M42.272,68.6
		c-0.637,0-1.155-0.516-1.155-1.154s0.518-1.156,1.155-1.156c0.638,0,1.155,0.518,1.155,1.156S42.91,68.6,42.272,68.6z
		 M42.272,60.932c-0.637,0-1.155-0.518-1.155-1.156s0.518-1.154,1.155-1.154c0.638,0,1.155,0.516,1.155,1.154
		S42.91,60.932,42.272,60.932z M46.107,87.773c-0.637,0-1.155-0.518-1.155-1.156c0-0.637,0.518-1.154,1.155-1.154
		c0.639,0,1.155,0.518,1.155,1.154C47.262,87.256,46.746,87.773,46.107,87.773z M49.942,91.607c-0.638,0-1.154-0.518-1.154-1.156
		c0-0.637,0.517-1.154,1.154-1.154s1.154,0.518,1.154,1.154C51.096,91.09,50.58,91.607,49.942,91.607z"/>
	<path fill="#66615B" d="M11.596,79.479c0.32,0,0.624,0.061,0.917,0.146c-0.05-0.219-0.083-0.443-0.083-0.676
		c0-0.234,0.033-0.461,0.083-0.68c-0.293,0.086-0.596,0.146-0.917,0.146c-0.032,0-0.061-0.01-0.093-0.01
		c0.026,0.178,0.056,0.355,0.056,0.543c0,0.186-0.029,0.361-0.056,0.539C11.535,79.486,11.564,79.479,11.596,79.479z"/>
	<path fill="#66615B" d="M11.596,71.812c0.321,0,0.624,0.059,0.917,0.145c-0.05-0.219-0.083-0.445-0.083-0.678
		s0.033-0.457,0.083-0.676c-0.293,0.086-0.597,0.145-0.917,0.145c-0.032,0-0.061-0.008-0.093-0.008
		c0.026,0.176,0.056,0.354,0.056,0.539s-0.029,0.363-0.056,0.543C11.535,71.82,11.564,71.812,11.596,71.812z"/>
	<path fill="#66615B" d="M11.596,87.15c0.321,0,0.624,0.061,0.917,0.146c-0.05-0.221-0.083-0.447-0.083-0.68
		s0.033-0.457,0.083-0.676c-0.293,0.086-0.597,0.145-0.917,0.145c-0.032,0-0.061-0.008-0.093-0.008
		c0.026,0.176,0.056,0.354,0.056,0.539s-0.029,0.363-0.056,0.543C11.535,87.158,11.564,87.15,11.596,87.15z"/>
	<path fill="#66615B" d="M11.596,64.141c0.32,0,0.624,0.061,0.917,0.146c-0.05-0.219-0.083-0.443-0.083-0.676
		c0-0.234,0.033-0.461,0.083-0.68c-0.293,0.086-0.596,0.145-0.917,0.145c-0.032,0-0.061-0.008-0.093-0.008
		c0.026,0.178,0.056,0.355,0.056,0.543c0,0.186-0.029,0.361-0.056,0.539C11.535,64.148,11.564,64.141,11.596,64.141z"/>
	<path fill="#66615B" d="M15.431,75.945c0.505,0,0.972,0.137,1.388,0.355c-0.174-0.359-0.281-0.76-0.281-1.188
		c0-0.426,0.107-0.826,0.281-1.186c-0.416,0.219-0.883,0.355-1.388,0.355c-0.234,0-0.46-0.033-0.678-0.084
		c0.086,0.293,0.144,0.596,0.144,0.914c0,0.32-0.058,0.623-0.144,0.916C14.971,75.979,15.197,75.945,15.431,75.945z"/>
	<path fill="#66615B" d="M15.431,81.951c-0.234,0-0.46-0.033-0.677-0.082c0.085,0.291,0.143,0.594,0.143,0.914
		s-0.058,0.623-0.143,0.914c0.217-0.051,0.443-0.084,0.677-0.084c0.503,0,0.97,0.137,1.388,0.355
		c-0.174-0.359-0.281-0.76-0.281-1.186c0-0.428,0.107-0.826,0.281-1.188C16.401,81.816,15.935,81.951,15.431,81.951z"/>
	<path fill="#66615B" d="M58.761,56.547c-7.414,7.412-7.413,9.525-7.413,10.322c0,3.322,4.248,8,7.813,11.342
		c0.349,0.328,8.631,8.055,12.036,8.055c1.088,0,2.734-0.588,9.723-7.574c8.166-8.168,5.355-16.799,0-22.15
		C73.689,49.312,65.996,49.311,58.761,56.547z M78.527,58.934c8.057,8.055,2.039,15.328,0,17.365
		c-5.186,5.186-6.93,6.311-7.424,6.555c-1.131-0.324-5.021-2.793-9.629-7.113c-4.658-4.363-6.743-7.6-6.746-8.832
		c0.003-0.018,0.314-1.859,6.423-7.969c2.961-2.961,5.885-4.461,8.689-4.461C72.648,54.479,75.57,55.975,78.527,58.934z"/>
	<path fill="#66615B" d="M15.431,68.275c0.503,0,0.97,0.137,1.388,0.355c-0.174-0.359-0.281-0.76-0.281-1.186
		c0-0.428,0.107-0.826,0.281-1.188c-0.417,0.219-0.884,0.355-1.388,0.355c-0.234,0-0.46-0.033-0.677-0.082
		c0.085,0.291,0.143,0.594,0.143,0.914s-0.058,0.621-0.143,0.914C14.971,68.309,15.197,68.275,15.431,68.275z"/>
</g>
</svg>
