<?xml version="1.0" encoding="utf-8"?>
<!-- Generator: Adobe Illustrator 16.0.0, SVG Export Plug-In . SVG Version: 6.00 Build 0)  -->
<!DOCTYPE svg PUBLIC "-//W3C//DTD SVG 1.1//EN" "http://www.w3.org/Graphics/SVG/1.1/DTD/svg11.dtd">
<svg version="1.1" id="Layer_1" xmlns="http://www.w3.org/2000/svg" xmlns:xlink="http://www.w3.org/1999/xlink" x="0px" y="0px"
	 width="181.025px" height="95px" viewBox="0 0 181.025 95" enable-background="new 0 0 181.025 95" xml:space="preserve">
<g>
	<g>
		<g>
			<path fill-rule="evenodd" clip-rule="evenodd" fill="#66615B" d="M60.322,14.206v66.565c0,6.048,1.051,7.098,7.17,7.098h106.386
				c6.095,0,7.147-1.05,7.147-7.098V14.206c0-6.048-1.053-7.075-7.147-7.075H67.492C61.373,7.131,60.322,8.158,60.322,14.206z
				 M72.415,11.911h96.564v71.871H72.415V11.911z M172.3,47.74c0-1.604,1.291-2.869,2.892-2.869c1.603,0,2.892,1.265,2.892,2.869
				c0,1.576-1.29,2.867-2.892,2.867C173.591,50.607,172.3,49.316,172.3,47.74z"/>
		</g>
	</g>
</g>
<g>
	<path fill="#66615B" d="M5.043,87.666H5.02c-0.287,0-0.908,0-1.792-0.931C2.653,86.137,0.933,84.424,0,83.11
		c0.525,1.912,2.701,9.453,2.892,10.002C3.131,93.852,3.848,95,5.067,95c1.195,0,1.912-1.148,2.151-1.888
		c0.191-0.549,2.437-8.09,2.963-10.002c-0.909,1.268-2.749,3.004-3.346,3.625C5.951,87.666,5.33,87.666,5.043,87.666z"/>
	<path fill="#66615B" d="M7.672,0H5.091H2.509C0,0,0.048,1.961,0,2.558h10.182C10.134,1.961,10.182,0,7.672,0z"/>
	<path fill-rule="evenodd" clip-rule="evenodd" fill="#66615B" d="M0,4.134V81.17c0,0,2.796,3.259,3.442,3.905
		c0.789,0.835,1.338,0.835,1.578,0.835h0.023c0.239,0,0.789,0,1.578-0.835c0.669-0.67,3.561-3.978,3.561-3.978V4.134H0z"/>
</g>
<g>
	<path fill-rule="evenodd" clip-rule="evenodd" fill="#66615B" d="M33.124,47.5c0,4.282-1.787,8.147-4.646,10.913l3.211,3.154
		c3.658-3.579,5.937-8.56,5.937-14.067s-2.279-10.488-5.937-14.067l-3.211,3.154C31.337,39.353,33.124,43.218,33.124,47.5z"/>
	<path fill-rule="evenodd" clip-rule="evenodd" fill="#66615B" d="M43.254,47.5c0,7.041-2.895,13.416-7.549,18.01l3.21,3.155
		c5.454-5.408,8.839-12.896,8.839-21.165s-3.385-15.757-8.839-21.165l-3.21,3.155C40.36,34.084,43.254,40.459,43.254,47.5z"/>
	<path fill-rule="evenodd" clip-rule="evenodd" fill="#66615B" d="M22.995,47.5c0,1.522-0.689,2.875-1.755,3.802l3.213,3.156
		c1.863-1.746,3.044-4.209,3.044-6.958s-1.181-5.212-3.044-6.958l-3.213,3.156C22.306,44.625,22.995,45.978,22.995,47.5z"/>
</g>
</svg>
