<?xml version="1.0" encoding="utf-8"?>
<!-- Generator: Adobe Illustrator 16.0.0, SVG Export Plug-In . SVG Version: 6.00 Build 0)  -->
<!DOCTYPE svg PUBLIC "-//W3C//DTD SVG 1.1//EN" "http://www.w3.org/Graphics/SVG/1.1/DTD/svg11.dtd">
<svg version="1.1" id="Layer_1" xmlns="http://www.w3.org/2000/svg" xmlns:xlink="http://www.w3.org/1999/xlink" x="0px" y="0px"
	 width="156.566px" height="95px" viewBox="0 0 156.566 95" enable-background="new 0 0 156.566 95" xml:space="preserve">
<path fill="#66615B" d="M153.55,19.548h-20.858V5.321c0-4.553-0.768-5.321-5.206-5.321H36.093c-4.438,0-5.205,0.768-5.205,5.321
	v9.924H3.554C0.519,15.245,0,15.783,0,18.914v49.366c0,3.131,0.519,3.669,3.554,3.669h12.601v17.732
	c0,4.531,0.749,5.319,5.205,5.319h77.37c4.438,0,5.207-0.788,5.207-5.319v-7.162h23.549c4.438,0,5.206-0.788,5.206-5.322v-9.57
	h20.858c2.555,0,3.016-0.443,3.016-3.093V22.66C156.566,20.008,156.105,19.548,153.55,19.548z M16.155,39.682v26.159H5.571V20.988
	h25.317v13.373H21.36C16.903,34.361,16.155,35.148,16.155,39.682z M94.274,90.773H24.568V38.586h69.707V90.773z M99.209,66.833
	c-1.17,0-2.112-0.96-2.112-2.151c0-1.193,0.941-2.154,2.112-2.154c1.173,0,2.114,0.96,2.114,2.154
	C101.324,65.872,100.382,66.833,99.209,66.833z M124.085,73.912h-20.148v-34.23c0-4.534-0.769-5.321-5.207-5.321H39.128V8.605
	h84.957V73.912z M128.483,43.411c-1.17,0-2.112-0.961-2.112-2.152c0-1.191,0.942-2.152,2.112-2.152c1.154,0,2.095,0.96,2.095,2.152
	C130.579,42.45,129.637,43.411,128.483,43.411z M151.496,62.44h-18.805V24.388h18.805V62.44z"/>
</svg>
