<?xml version="1.0" encoding="utf-8"?>
<!-- Generator: Adobe Illustrator 16.0.0, SVG Export Plug-In . SVG Version: 6.00 Build 0)  -->
<!DOCTYPE svg PUBLIC "-//W3C//DTD SVG 1.1//EN" "http://www.w3.org/Graphics/SVG/1.1/DTD/svg11.dtd">
<svg version="1.1" id="Layer_1" xmlns="http://www.w3.org/2000/svg" xmlns:xlink="http://www.w3.org/1999/xlink" x="0px" y="0px"
	 width="120px" height="120px" viewBox="0 0 120 120" enable-background="new 0 0 120 120" xml:space="preserve">
<path fill="#66615B" d="M80.537,86.922L51.082,57.468c4.73-4.73,27.342-27.342,45.225-45.227C86.227,4.565,73.647,0,60,0
	C26.863,0,0,26.863,0,60c0,6.351,0.994,12.466,2.822,18.21l49.938,0.001l-3.962-3.962c-5.559-5.563-1.649-12.607-0.106-14.387
	L78.135,89.3c-1.105,0.964-4.264,2.842-7.829,2.775l0.003,0.004H9.307C19.945,108.855,38.666,120,60,120c33.137,0,60-26.863,60-60
	c0-3.913-0.388-7.734-1.103-11.438L80.537,86.922z"/>
</svg>
