<?xml version="1.0" encoding="utf-8"?>
<!-- Generator: Adobe Illustrator 16.0.0, SVG Export Plug-In . SVG Version: 6.00 Build 0)  -->
<!DOCTYPE svg PUBLIC "-//W3C//DTD SVG 1.1//EN" "http://www.w3.org/Graphics/SVG/1.1/DTD/svg11.dtd">
<svg version="1.1" id="Layer_1" xmlns="http://www.w3.org/2000/svg" xmlns:xlink="http://www.w3.org/1999/xlink" x="0px" y="0px"
	 width="120px" height="120px" viewBox="0 0 120 120" enable-background="new 0 0 120 120" xml:space="preserve">
<g>
	<path fill="#66615B" d="M4.729,84.634c0.518,1.147,1.065,2.275,1.65,3.383h28.726c-0.341-0.663-1.504-3.383-10.47-3.383H4.729z"/>
	<path fill="#66615B" d="M19.759,48.413c4.654,0,8.486-1.227,12.544-4.471c4.06-3.247,8.257-6.604,13.26-6.604h3.616l6.999,6.968
		h-1.837c-0.933,0-1.691,0.757-1.691,1.692c0,0.934,0.759,1.691,1.691,1.691h41.294c3.014,0,4.084,2.169,4.084,4.025
		c0,2.031-1.279,4.217-4.084,4.217H76.208c-0.933,0-1.691,0.758-1.691,1.691c0,0.935,0.759,1.692,1.691,1.692H94.01
		c0.629,0.45,1.591,3.194,0.943,5.727c-0.65,2.537-2.445,2.537-3.034,2.537H76.208c-0.933,0-1.691,0.759-1.691,1.692
		c0,0.936,0.759,1.691,1.691,1.691H90.56c0.402,0.967,0.63,3.785-0.304,5.725c-0.671,1.398-1.527,1.398-1.853,1.398H73.383
		c-0.937,0-1.692,0.759-1.692,1.691c0,0.936,0.756,1.691,1.692,1.691H85.03c0.051,1.691-0.161,4.11-1.321,5.461
		c-0.629,0.732-1.515,1.086-2.706,1.086h31.489c4.425-8.363,6.943-17.895,6.943-28.017c0-33.137-26.864-60-60.002-60
		C30.262,0,5.964,20.822,0.564,48.413H19.759z M102.002,73.21h0.003l1.625,1.626c1.147,2.109,3.026,6.274,3.178,6.592
		c0.271,0.565,0.502,1.626-0.212,2.339c-0.716,0.717-1.776,0.484-2.342,0.212c-0.319-0.153-4.567-2.069-6.703-3.225l-0.436-0.434
		l-0.066-0.059l-3.299-3.296c0.347-1.097,0.547-2.325,0.547-3.618c0-1.002-0.105-1.905-0.298-2.68
		c1.281-0.396,2.347-1.179,3.137-2.321c0,0,0,0,0-0.002L102.002,73.21z M43.806,24.461l3.443-3.447
		c0.709-0.706,1.854-0.704,2.559-0.001L73.1,44.307H61.095L43.806,27.019C43.097,26.313,43.097,25.17,43.806,24.461z"/>
	<path fill="#66615B" d="M8.742,92.079C19.381,108.855,38.101,120,59.434,120c21.336,0,40.055-11.145,50.696-27.921H8.742z"/>
</g>
</svg>
