<?xml version="1.0" encoding="utf-8"?>
<!-- Generator: Adobe Illustrator 15.0.0, SVG Export Plug-In . SVG Version: 6.00 Build 0)  -->
<!DOCTYPE svg PUBLIC "-//W3C//DTD SVG 1.1//EN" "http://www.w3.org/Graphics/SVG/1.1/DTD/svg11.dtd">
<svg version="1.1" id="Layer_1" xmlns="http://www.w3.org/2000/svg" xmlns:xlink="http://www.w3.org/1999/xlink" x="0px" y="0px"
	 width="209.422px" height="209.422px" viewBox="0 0 209.422 209.422" enable-background="new 0 0 209.422 209.422"
	 xml:space="preserve">
<g>
	<polygon fill="#615D57" points="37.325,135.971 34.551,137.154 33.18,133.945 35.953,132.762 35.435,131.54 28.567,134.471 
		29.093,135.688 32.136,134.391 33.504,137.6 30.463,138.898 30.98,140.117 37.845,137.189 	"/>
	<path fill="#615D57" d="M41.062,143.068l-8.049,1.104l0.77,1.271l1.806-0.312l1.679,2.762l-1.094,1.479l0.79,1.29l4.693-6.608
		L41.062,143.068z M38.002,146.906l-1.204-1.979l3.196-0.578L38.002,146.906z"/>
	<path fill="#615D57" d="M47.027,155.051c1.212-0.979,0.985-2.214-0.083-3.544l-1.529-1.89l-5.798,4.677l0.834,1.032l2.398-1.936
		l0.639,0.793C44.482,155.41,45.747,156.078,47.027,155.051z M44.299,153.411l-0.582-0.72l1.661-1.346l0.61,0.756
		c0.517,0.64,0.888,1.35,0.195,1.903C45.498,154.564,44.84,154.083,44.299,153.411z"/>
	<path fill="#615D57" d="M53.189,158.273l-1.758-1.688l-5.164,5.393l0.961,0.922l2.14-2.232l0.736,0.707
		c1.141,1.098,2.487,1.596,3.626,0.406C54.809,160.656,54.425,159.455,53.189,158.273z M52.762,160.855
		c-0.612,0.64-1.33,0.246-1.954-0.352l-0.671-0.646l1.482-1.541l0.699,0.67C52.911,159.557,53.376,160.219,52.762,160.855z"/>
	
		<rect x="52.859" y="165.48" transform="matrix(-0.6137 0.7895 -0.7895 -0.6137 222.4862 223.437)" fill="#615D57" width="7.449" height="1.331"/>
	<polygon fill="#615D57" points="64.557,173.732 64.539,173.723 64.468,167.154 62.966,166.244 59.101,172.613 60.233,173.307 
		63.222,168.382 63.239,168.393 63.276,175.15 64.719,176.021 68.582,169.65 67.449,168.963 	"/>
	<polygon fill="#615D57" points="69.573,178.479 74.28,180.518 74.75,179.43 71.259,177.921 72.1,175.991 75.237,177.352 
		75.683,176.326 72.541,174.961 73.294,173.225 76.608,174.661 77.069,173.596 72.534,171.631 	"/>
	<path fill="#615D57" d="M83.574,175.559c-1.294-0.377-2.812-0.123-3.237,1.338c-0.393,1.334,0.424,2.033,1.215,2.562
		c0.818,0.547,1.502,0.979,1.281,1.727c-0.225,0.767-1.01,0.854-1.605,0.681c-0.567-0.167-1.125-0.659-1.335-1.246l-1.159,0.58
		c0.371,0.836,1.229,1.473,2.157,1.745c1.406,0.412,2.826,0.015,3.276-1.521c0.413-1.404-0.639-2.152-1.475-2.705
		c-0.736-0.494-1.236-0.846-1.043-1.505c0.204-0.698,0.965-0.784,1.551-0.608c0.507,0.148,0.964,0.569,1.134,1.002l1.097-0.666
		C85.035,176.262,84.29,175.771,83.574,175.559z"/>
	<path fill="#615D57" d="M92.14,177.495c-1.332-0.22-2.805,0.216-3.056,1.711c-0.229,1.372,0.665,1.969,1.513,2.399
		c0.875,0.444,1.607,0.791,1.479,1.561c-0.133,0.786-0.9,0.971-1.513,0.87c-0.581-0.103-1.193-0.521-1.473-1.082l-1.082,0.718
		c0.468,0.784,1.394,1.312,2.349,1.471c1.443,0.24,2.811-0.32,3.069-1.897c0.244-1.442-0.892-2.06-1.785-2.513
		c-0.79-0.394-1.328-0.689-1.215-1.362c0.119-0.72,0.866-0.894,1.468-0.792c0.519,0.085,1.024,0.447,1.243,0.857l1.008-0.793
		C93.674,178.023,92.875,177.619,92.14,177.495z"/>
	<polygon fill="#615D57" points="108.27,183.79 108.239,183.792 106.005,178.616 103.936,178.734 104.355,186.178 105.619,186.107 
		105.277,180.121 105.301,180.123 107.868,185.979 108.793,185.924 110.715,179.814 110.734,179.814 111.074,185.795 
		112.389,185.723 111.966,178.279 109.882,178.396 	"/>
	<path fill="#615D57" d="M118.543,177.102l-1.598,7.971l1.449-0.312l0.299-1.807l3.162-0.684l1.041,1.521l1.483-0.319l-4.715-6.613
		L118.543,177.102z M118.896,181.74l0.504-3.211l1.762,2.724L118.896,181.74z"/>
	<polygon fill="#615D57" points="130.566,173.607 124.962,175.471 125.328,176.568 127.499,175.844 129.486,181.826 130.75,181.41 
		128.76,175.43 130.932,174.706 	"/>
	<polygon fill="#615D57" points="138.87,170.986 138.366,169.943 133.057,172.529 133.562,173.57 135.619,172.566 138.375,178.243 
		139.568,177.656 136.816,171.988 	"/>
	<polygon fill="#615D57" points="146.096,172.661 144.949,170.895 147.818,169.034 147.213,168.1 144.342,169.961 143.314,168.373 
		146.34,166.406 145.713,165.438 141.568,168.121 145.622,174.372 149.922,171.585 149.283,170.594 	"/>
	<path fill="#615D57" d="M154.593,161.05c-1.02-1.2-2.407-0.756-3.476,0.147l-1.975,1.678l4.821,5.68l1.013-0.857l-2.043-2.406
		l0.737-0.627l3.356,1.291l1.22-1.034l-3.653-1.231C155.238,162.835,155.289,161.868,154.593,161.05z M153.059,163.76l-0.826,0.703
		l-1.353-1.594l0.911-0.779c0.521-0.445,1.261-0.809,1.787-0.188C154.163,162.589,153.628,163.277,153.059,163.76z"/>
	<path fill="#615D57" d="M160.087,156.784c-0.767,0.442-1.303,0.733-1.806,0.272c-0.537-0.492-0.279-1.211,0.134-1.658
		c0.356-0.393,0.938-0.619,1.399-0.578l-0.113-1.278c-0.781,0.058-1.555,0.509-2.059,1.06c-0.912,0.992-1.347,2.465-0.229,3.489
		c1.023,0.942,2.013,0.521,2.833,0.046c0.854-0.492,1.544-0.918,2.121-0.39c0.585,0.539,0.321,1.28-0.099,1.737
		c-0.397,0.436-1.088,0.719-1.713,0.648l0.014,1.299c0.91,0.034,1.859-0.453,2.516-1.17c0.987-1.078,1.262-2.529,0.081-3.611
		C162.089,155.656,160.952,156.273,160.087,156.784z"/>
</g>
<path fill="#615D57" d="M29.348,85.653c1.338,0.366,2.024-0.462,2.538-1.261c0.533-0.826,0.951-1.521,1.702-1.312
	c0.772,0.209,0.874,0.991,0.713,1.59c-0.156,0.57-0.639,1.136-1.226,1.359l0.604,1.147c0.829-0.384,1.447-1.253,1.703-2.189
	c0.383-1.41-0.038-2.826-1.58-3.249c-1.414-0.386-2.142,0.681-2.68,1.531c-0.476,0.742-0.823,1.246-1.482,1.066
	c-0.701-0.191-0.804-0.948-0.639-1.54c0.138-0.508,0.552-0.974,0.98-1.151l-0.688-1.081c-0.667,0.403-1.146,1.159-1.344,1.88
	C27.594,83.746,27.882,85.256,29.348,85.653z"/>
<path fill="#615D57" d="M37.31,78.273l-1.317-1.279l1.24-2.983l1.839,0.013l0.583-1.401l-8.113,0.108l-0.439,1.06l5.64,5.852
	L37.31,78.273z M32.766,73.9l3.238,0.102l-0.888,2.141L32.766,73.9z"/>
<polygon fill="#615D57" points="36.114,65.949 41.606,69.034 42.256,67.876 36.767,64.792 37.882,62.799 36.872,62.233 
	33.986,67.375 34.994,67.942 "/>
<rect x="38.837" y="59.783" transform="matrix(-0.8201 -0.5722 0.5722 -0.8201 42.888 134.3769)" fill="#615D57" width="7.458" height="1.328"/>
<path fill="#615D57" d="M46.974,55.329c0.833-0.522,1.506-0.976,2.099-0.47c0.609,0.52,0.371,1.269-0.031,1.743
	c-0.382,0.45-1.059,0.757-1.684,0.708l0.06,1.295c0.914,0.003,1.838-0.521,2.467-1.258c0.949-1.113,1.168-2.57-0.052-3.608
	c-1.111-0.949-2.225-0.292-3.07,0.248c-0.744,0.467-1.272,0.779-1.794,0.337c-0.553-0.47-0.316-1.197,0.076-1.664
	c0.342-0.397,0.911-0.646,1.377-0.624l-0.162-1.271c-0.776,0.081-1.53,0.562-2.014,1.131c-0.875,1.024-1.253,2.511-0.1,3.492
	C45.201,56.29,46.172,55.831,46.974,55.329z"/>
<polygon fill="#615D57" points="55.074,51.557 52.937,49.259 55.346,47.018 54.583,46.203 52.177,48.443 50.786,46.946 
	53.337,44.569 52.547,43.719 49.022,47.002 54.106,52.462 "/>
<path fill="#615D57" d="M60.476,46.857l-0.461-1.776l2.612-1.907l1.568,0.965l1.224-0.895l-6.997-4.123l-0.927,0.678l1.782,7.935
	L60.476,46.857z M61.578,42.527l-1.868,1.366l-0.849-3.138L61.578,42.527z"/>
<path fill="#615D57" d="M71.229,40.152c1.114-0.604,1.73-1.492,1.912-2.526l-1.29-0.15c-0.089,0.635-0.478,1.244-1.18,1.625
	c-1.353,0.735-2.764,0.219-3.537-1.206c-0.734-1.353-0.386-2.896,0.964-3.628c0.528-0.288,1.258-0.424,1.857-0.138l0.506-1.185
	c-0.889-0.405-2.071-0.17-2.922,0.293c-2.018,1.096-2.833,3.256-1.69,5.356C66.963,40.639,69.185,41.266,71.229,40.152z"/>
<polygon fill="#615D57" points="75.68,30.941 77.98,36.806 79.217,36.32 76.917,30.457 79.042,29.622 78.617,28.545 73.129,30.698 
	73.555,31.776 "/>
<rect x="80.401" y="30.107" transform="matrix(-0.2735 -0.9619 0.9619 -0.2735 77.5366 120.1077)" fill="#615D57" width="7.454" height="1.329"/>
<path fill="#615D57" d="M93.347,32.729c2.301-0.37,3.72-2.231,3.348-4.529c-0.378-2.361-2.294-3.581-4.592-3.209
	c-2.271,0.363-3.704,2.12-3.324,4.482C89.146,31.771,91.078,33.094,93.347,32.729z M92.295,26.143
	c1.531-0.247,2.73,0.768,2.973,2.286c0.255,1.571-0.592,2.881-2.098,3.125c-1.5,0.24-2.714-0.74-2.967-2.309
	C89.96,27.724,90.778,26.387,92.295,26.143z"/>
<polygon fill="#615D57" points="102.291,31.637 102.249,25.873 102.271,25.873 105.854,31.612 107.539,31.601 107.484,24.14 
	106.158,24.148 106.193,29.734 106.175,29.734 102.669,24.175 100.907,24.185 100.964,31.646 "/>
<path fill="#615D57" d="M120.26,33.457c1.145,0.239,2.065,0.207,2.869,0.009l0.797-3.781l-2.794-0.586l-0.228,1.073l1.539,0.319
	l-0.393,1.858c-0.459,0.083-0.961,0.063-1.506-0.05c-1.607-0.338-2.359-1.678-2.033-3.234c0.317-1.504,1.562-2.46,3.096-2.138
	c0.783,0.166,1.426,0.646,1.711,1.136l1.099-0.781c-0.474-0.67-1.423-1.257-2.578-1.5c-2.246-0.47-4.267,0.644-4.759,2.981
	C116.604,31.042,117.911,32.962,120.26,33.457z"/>
<path fill="#615D57" d="M129.566,36.151c1.6,0.583,3.207-0.032,3.82-1.726l1.615-4.431l-1.247-0.455l-1.598,4.383
	c-0.294,0.81-0.988,1.546-2.185,1.108c-1.197-0.436-1.258-1.443-0.961-2.257l1.596-4.383l-1.244-0.451l-1.614,4.432
	C127.13,34.064,127.96,35.564,129.566,36.151z"/>
<path fill="#615D57" d="M137.868,37.631l2.858,1.504l-0.181,1.834l1.343,0.705l0.625-8.091L141.5,33.05l-6.337,5.085l1.312,0.691
	L137.868,37.631z M141.24,34.696l-0.396,3.218l-2.047-1.077L141.24,34.696z"/>
<path fill="#615D57" d="M147.411,41.576l0.792,0.562l-0.418,3.574l1.306,0.926l0.288-3.849c0.984,0.415,1.934,0.224,2.555-0.654
	c0.912-1.287,0.135-2.521-1.004-3.329l-2.113-1.5l-4.312,6.08l1.082,0.768L147.411,41.576z M149.252,38.985l0.979,0.693
	c0.56,0.396,1.099,1.021,0.625,1.681c-0.521,0.74-1.318,0.393-1.93-0.039l-0.885-0.627L149.252,38.985z"/>
<path fill="#615D57" d="M152.177,49.197l1.655-0.794l2.376,2.197l-0.651,1.726l1.114,1.029l2.71-7.66l-0.845-0.779l-7.449,3.274
	L152.177,49.197z M157.857,46.442l-1.219,3.008l-1.701-1.575L157.857,46.442z"/>
<polygon fill="#615D57" points="159.643,56.705 164.104,53.068 164.117,53.085 161.885,59.464 162.95,60.771 168.729,56.064 
	167.891,55.035 163.566,58.559 163.552,58.542 165.689,52.333 164.579,50.972 158.803,55.676 "/>
<polygon fill="#615D57" points="166.716,66.51 172.072,63.205 173.273,65.15 174.261,64.541 171.163,59.522 170.18,60.129 
	171.377,62.078 166.02,65.382 "/>
<polygon fill="#615D57" points="171.611,76.041 172.68,75.548 171.085,72.097 172.995,71.209 174.436,74.315 175.448,73.849 
	174.008,70.739 175.729,69.943 177.249,73.225 178.301,72.735 176.225,68.253 169.452,71.387 "/>
<polygon fill="#615D57" points="174.501,84.361 175.624,84 174.459,80.381 176.463,79.737 177.512,82.994 178.574,82.652 
	177.525,79.394 179.328,78.813 180.434,82.252 181.538,81.896 180.023,77.196 172.932,79.479 "/>
<path fill="#615D57" d="M104.711,0C46.972,0,0,46.971,0,104.709c0,57.74,46.972,104.713,104.711,104.713
	c57.739,0,104.711-46.973,104.711-104.713C209.422,46.971,162.45,0,104.711,0z M104.711,208.691
	c-57.334,0-103.98-46.646-103.98-103.982C0.731,47.374,47.377,0.73,104.711,0.73s103.98,46.645,103.98,103.979
	C208.691,162.046,162.045,208.691,104.711,208.691z"/>
<path fill="#615D57" d="M197.128,104.941h8.431l-0.008-1.379l-8.445,0.1c-0.01-0.939-0.031-1.874-0.07-2.806l8.436-0.328
	l-0.052-1.146L197,99.809c-0.049-0.934-0.135-1.857-0.211-2.781l8.426-0.696l-0.102-1.143l-8.402,0.794
	c-0.088-0.929-0.204-1.851-0.318-2.772l8.393-1.057l-0.146-1.121l-8.379,1.123c-0.126-0.924-0.264-1.844-0.416-2.758l8.34-1.388
	l-0.195-1.131l-8.33,1.494c-0.162-0.919-0.321-1.839-0.514-2.745l8.26-1.748l-0.237-1.107l-8.261,1.823
	c-0.204-0.907-0.401-1.818-0.631-2.716l8.185-2.079l-0.291-1.113l-8.165,2.183c-0.242-0.905-0.499-1.802-0.77-2.694l8.107-2.418
	c-0.109-0.366-0.225-0.732-0.336-1.099l-8.061,2.517c-0.278-0.896-0.594-1.774-0.901-2.657l8.005-2.77l-0.385-1.089l-7.955,2.866
	c-0.318-0.883-0.661-1.753-1.007-2.623l7.889-3.102c-0.142-0.359-0.282-0.716-0.43-1.074l-7.841,3.205
	c-0.355-0.868-0.721-1.729-1.102-2.581l7.747-3.433c-0.153-0.354-0.313-0.706-0.474-1.058l-7.703,3.539
	c-0.391-0.85-0.784-1.698-1.199-2.536l7.59-3.761l-0.509-1.02l-7.562,3.839c-0.424-0.83-0.844-1.666-1.291-2.482l7.426-4.062
	c-0.186-0.339-0.371-0.674-0.562-1.01l-7.383,4.17c-0.46-0.818-0.919-1.632-1.402-2.435l7.258-4.365
	c-0.201-0.335-0.405-0.669-0.614-1l-7.183,4.492c-0.496-0.798-1.008-1.59-1.522-2.372l7.073-4.674l-0.637-0.957l-7.01,4.752
	c-0.521-0.771-1.074-1.523-1.621-2.279l6.881-4.973l-0.662-0.909l-6.836,5.012c-0.553-0.747-1.129-1.475-1.705-2.202l6.679-5.249
	c-0.237-0.3-0.478-0.605-0.722-0.905l-6.598,5.339c-0.588-0.728-1.188-1.442-1.797-2.153l6.452-5.522
	c-0.249-0.29-0.5-0.577-0.753-0.868l-6.382,5.603c-0.617-0.701-1.236-1.399-1.873-2.082l6.213-5.781l-0.789-0.838l-6.146,5.864
	c-0.644-0.674-1.285-1.35-1.945-2.003l5.955-6.036l-0.803-0.79l-5.925,6.091c-0.663-0.646-1.325-1.295-2.012-1.919l5.701-6.268
	l-0.851-0.765l-5.644,6.342c-0.696-0.62-1.396-1.232-2.108-1.829l5.443-6.503l-0.875-0.726l-5.375,6.553
	c-0.718-0.588-1.455-1.155-2.191-1.724l5.178-6.727c-0.305-0.233-0.611-0.464-0.92-0.695l-5.073,6.778
	c-0.75-0.558-1.515-1.091-2.276-1.632l4.901-6.934c-0.317-0.224-0.636-0.444-0.951-0.661l-4.793,6.997
	c-0.767-0.53-1.551-1.039-2.336-1.545l4.603-7.136l-0.961-0.611l-4.522,7.179c-0.785-0.494-1.575-0.979-2.376-1.45l4.291-7.314
	l-0.969-0.565l-4.244,7.352c-0.803-0.459-1.603-0.92-2.422-1.354l3.986-7.477l-0.998-0.525l-3.928,7.521
	c-0.823-0.428-1.641-0.865-2.477-1.269l3.676-7.616c-0.346-0.165-0.692-0.329-1.041-0.492l-3.576,7.684
	c-0.838-0.394-1.684-0.781-2.54-1.15l3.341-7.778l-1.045-0.442l-3.256,7.809c-0.855-0.357-1.721-0.691-2.586-1.021l3.014-7.916
	l-1.068-0.401L136.682,18c-0.875-0.324-1.759-0.612-2.644-0.909l2.688-8.035l-1.09-0.355l-2.591,8.054
	c-0.888-0.285-1.782-0.551-2.682-0.809l2.358-8.135c-0.367-0.108-0.738-0.21-1.109-0.312l-2.247,8.162
	c-0.896-0.248-1.798-0.488-2.706-0.713l2.004-8.219l-1.107-0.26l-1.921,8.245c-0.905-0.214-1.812-0.429-2.726-0.612l1.656-8.28
	l-1.118-0.216l-1.569,8.31c-0.918-0.169-1.829-0.344-2.749-0.489l1.306-8.339l-1.127-0.173l-1.223,8.359
	c-0.918-0.133-1.841-0.248-2.766-0.352l0.957-8.397l-1.131-0.124l-0.871,8.387c-0.922-0.094-1.854-0.15-2.785-0.219l0.611-8.433
	l-1.135-0.079l-0.527,8.434c-0.926-0.058-1.854-0.092-2.789-0.124l0.265-8.449l-1.133-0.029l-0.185,8.454
	c-0.631-0.015-1.254-0.049-1.888-0.049c-0.303,0-0.6,0.02-0.902,0.024l-0.083-8.445l-1.147,0.018l0.184,8.452
	c-0.933,0.021-1.869,0.024-2.796,0.071l-0.429-8.415l-1.145,0.064l0.526,8.43c-0.933,0.059-1.863,0.13-2.79,0.216l-0.777-8.41
	l-1.131,0.11l0.859,8.389c-0.93,0.096-1.849,0.229-2.769,0.351l-1.123-8.38l-1.131,0.157l1.207,8.358
	c-0.923,0.135-1.838,0.297-2.752,0.46L87.04,5.412l-1.12,0.204l1.554,8.314c-0.918,0.174-1.826,0.359-2.731,0.561l-1.818-8.263
	l-1.115,0.25l1.914,8.249c-0.91,0.211-1.815,0.422-2.714,0.661l-2.167-8.171l-1.099,0.299l2.253,8.159
	c-0.894,0.249-1.796,0.489-2.682,0.764l-2.502-8.063l-1.091,0.345l2.593,8.056c-0.892,0.288-1.774,0.586-2.651,0.9l-2.849-7.969
	l-1.079,0.394l2.937,7.926c-0.877,0.324-1.742,0.679-2.607,1.03L66.884,11.2l-1.063,0.435l3.27,7.801
	c-0.86,0.364-1.71,0.758-2.562,1.144l-3.507-7.72l-1.047,0.481l3.603,7.671c-0.847,0.396-1.684,0.812-2.517,1.236l-3.832-7.567
	l-1.025,0.525l3.926,7.519c-0.83,0.433-1.656,0.876-2.473,1.335l-4.134-7.405l-1.001,0.567l4.229,7.361
	c-0.806,0.462-1.615,0.927-2.405,1.415l-4.449-7.211l-0.964,0.598l4.52,7.188c-0.788,0.494-1.58,0.986-2.35,1.505l-4.732-7.018
	l-0.945,0.644l4.818,6.982c-0.766,0.532-1.524,1.067-2.271,1.618l-5.037-6.823l-0.916,0.683l5.108,6.765
	c-0.745,0.563-1.474,1.146-2.198,1.728l-5.32-6.613l-0.89,0.725l5.39,6.536c-0.726,0.597-1.427,1.216-2.131,1.835L38.4,28.733
	c-0.288,0.254-0.578,0.507-0.865,0.765l5.66,6.321c-0.695,0.622-1.372,1.259-2.048,1.899l-5.854-6.154l-0.816,0.785l5.903,6.102
	c-0.666,0.646-1.321,1.305-1.971,1.972l-6.094-5.911l-0.791,0.823l6.162,5.85c-0.643,0.674-1.278,1.352-1.897,2.047l-6.331-5.652
	L28.7,38.435l6.398,5.584c-0.612,0.703-1.227,1.399-1.816,2.118l-6.556-5.372l-0.715,0.88l6.618,5.321
	c-0.583,0.726-1.164,1.45-1.726,2.191l-6.764-5.106c-0.233,0.307-0.462,0.615-0.688,0.922l6.835,5.021
	c-0.553,0.752-1.092,1.513-1.622,2.278l-6.98-4.821l-0.642,0.938l7.015,4.743c-0.519,0.77-1.008,1.559-1.504,2.345l-7.177-4.531
	c-0.206,0.324-0.41,0.651-0.61,0.98l7.229,4.422c-0.488,0.791-0.955,1.602-1.42,2.413l-7.358-4.229
	c-0.192,0.331-0.381,0.665-0.568,1.005l7.41,4.116c-0.457,0.816-0.896,1.642-1.332,2.473l-7.519-3.928l-0.523,1.018l7.569,3.835
	c-0.42,0.828-0.834,1.659-1.23,2.499l-7.673-3.596c-0.163,0.347-0.323,0.693-0.48,1.042l7.725,3.497
	c-0.386,0.846-0.778,1.689-1.135,2.547l-7.806-3.262l-0.431,1.048l7.849,3.194c-0.349,0.86-0.7,1.721-1.028,2.596l-7.926-2.944
	c-0.134,0.358-0.263,0.72-0.393,1.081l7.968,2.842c-0.312,0.879-0.609,1.767-0.9,2.656l-8.049-2.618
	c-0.12,0.366-0.236,0.733-0.349,1.1l8.063,2.504c-0.275,0.888-0.513,1.79-0.764,2.685l-8.162-2.254l-0.295,1.091l8.167,2.181
	c-0.239,0.896-0.453,1.804-0.666,2.71l-8.241-1.925l-0.256,1.119l8.263,1.824c-0.201,0.909-0.393,1.823-0.567,2.743L5.63,85.823
	l-0.206,1.13l8.329,1.487c-0.162,0.914-0.329,1.828-0.464,2.752l-8.354-1.224l-0.162,1.138l8.384,1.12
	c-0.122,0.923-0.255,1.842-0.351,2.771l-8.395-0.86l-0.11,1.125l8.408,0.792c-0.086,0.924-0.152,1.854-0.212,2.785l-8.433-0.532
	L4,99.452l8.421,0.429c-0.051,0.922-0.058,1.856-0.078,2.788l-8.454-0.165l-0.018,1.129l8.445,0.098
	c-0.002,0.329-0.024,0.65-0.024,0.979c0,0.606,0.034,1.209,0.047,1.813l-8.455,0.164l0.029,1.146l8.45-0.268
	c0.028,0.938,0.063,1.877,0.118,2.805L4.05,110.87l0.074,1.144l8.438-0.598c0.066,0.932,0.12,1.861,0.213,2.785l-8.388,0.854
	l0.122,1.143l8.398-0.963c0.106,0.928,0.223,1.852,0.353,2.771l-8.356,1.226l0.167,1.115l8.339-1.291
	c0.146,0.924,0.319,1.836,0.494,2.748l-8.316,1.557l0.216,1.125l8.282-1.651c0.185,0.915,0.396,1.815,0.605,2.724l-8.244,1.918
	l0.261,1.104l8.224-1.99c0.219,0.904,0.454,1.805,0.703,2.697l-8.16,2.252l0.31,1.104l8.136-2.35c0.26,0.898,0.523,1.8,0.809,2.688
	l-8.059,2.569c0.118,0.369,0.238,0.735,0.36,1.099l8.035-2.678c0.297,0.885,0.584,1.773,0.906,2.646l-7.927,2.93l0.398,1.068
	l7.917-3.016c0.334,0.873,0.668,1.742,1.027,2.604l-7.808,3.259l0.444,1.049l7.777-3.334c0.372,0.859,0.764,1.708,1.158,2.554
	l-7.688,3.57c0.162,0.35,0.327,0.696,0.497,1.045l7.62-3.664c0.406,0.842,0.847,1.666,1.275,2.494l-7.53,3.902
	c0.178,0.344,0.357,0.686,0.539,1.027l7.467-4.006c0.442,0.827,0.906,1.645,1.374,2.457l-7.372,4.209
	c0.192,0.332,0.39,0.668,0.584,1l7.307-4.31c0.478,0.808,0.963,1.604,1.463,2.396l-7.188,4.516c0.204,0.324,0.413,0.65,0.62,0.972
	l7.127-4.608c0.509,0.783,1.021,1.568,1.551,2.336l-6.985,4.81c0.22,0.317,0.437,0.634,0.658,0.946l6.932-4.905
	c0.538,0.76,1.072,1.528,1.634,2.271l-6.767,5.1l0.677,0.896l6.749-5.154c0.567,0.733,1.133,1.473,1.721,2.188l-6.56,5.368
	l0.733,0.885l6.498-5.454c0.6,0.715,1.214,1.422,1.832,2.119l-6.336,5.641l0.767,0.853l6.259-5.709
	c0.629,0.687,1.28,1.353,1.926,2.022l-6.095,5.91l0.789,0.805l6.044-5.945c0.651,0.658,1.326,1.298,1.998,1.938l-5.855,6.153
	l0.831,0.782l5.783-6.215c0.682,0.636,1.38,1.255,2.078,1.869l-5.595,6.391l0.868,0.75l5.514-6.458
	c0.708,0.604,1.424,1.205,2.149,1.787l-5.318,6.614l0.898,0.716l5.238-6.685c0.732,0.576,1.465,1.15,2.216,1.709l-5.04,6.815
	c0.31,0.229,0.62,0.454,0.932,0.681l4.955-6.896c0.757,0.55,1.509,1.103,2.28,1.627l-4.749,7.007c0.32,0.217,0.64,0.43,0.964,0.645
	l4.654-7.088c0.778,0.512,1.562,1.02,2.355,1.512l-4.451,7.207l0.972,0.594l4.371-7.253c0.797,0.481,1.608,0.937,2.419,1.394
	l-4.161,7.391l0.991,0.552l4.078-7.418c0.812,0.444,1.643,0.86,2.471,1.28l-3.849,7.56l1.019,0.513l3.763-7.593
	c0.833,0.411,1.674,0.804,2.521,1.19l-3.538,7.705c0.351,0.16,0.699,0.317,1.052,0.474l3.426-7.752
	c0.851,0.377,1.702,0.745,2.566,1.096l-3.195,7.847l1.067,0.428l3.096-7.891c0.87,0.344,1.738,0.688,2.618,1.006l-2.869,7.957
	c0.361,0.127,0.726,0.258,1.09,0.383l2.762-8.008c0.88,0.307,1.758,0.621,2.647,0.899l-2.509,8.063l1.088,0.332l2.431-8.102
	c0.89,0.268,1.785,0.523,2.685,0.764l-2.181,8.17l1.102,0.289l2.096-8.178c0.897,0.229,1.81,0.428,2.721,0.629l-1.841,8.258
	l1.118,0.244l1.745-8.267c0.907,0.19,1.824,0.356,2.743,0.521l-1.494,8.33l1.123,0.191l1.403-8.337
	c0.917,0.153,1.836,0.291,2.764,0.42l-1.143,8.378l1.127,0.146l1.06-8.393c0.921,0.115,1.841,0.232,2.772,0.321l-0.796,8.403
	l1.135,0.101l0.708-8.425c0.927,0.078,1.853,0.164,2.787,0.214L99.3,205.41l1.136,0.055l0.363-8.436
	c0.927,0.039,1.854,0.06,2.788,0.072l-0.103,8.444l1.14,0.009l0.016-8.428c0.024,0,0.047,0,0.071,0c0.911,0,1.816-0.042,2.721-0.068
	l0.248,8.453l1.137-0.039l-0.33-8.438c0.932-0.04,1.859-0.101,2.785-0.165l0.598,8.436l1.133-0.087l-0.679-8.428
	c0.932-0.075,1.856-0.159,2.776-0.263l0.944,8.396l1.13-0.133l-1.025-8.394c0.922-0.117,1.85-0.222,2.764-0.36l1.288,8.337
	l1.123-0.182l-1.368-8.342c0.916-0.156,1.833-0.312,2.743-0.492l1.637,8.287l1.11-0.227l-1.711-8.268
	c0.908-0.191,1.813-0.41,2.714-0.627l1.983,8.224l1.107-0.276l-2.073-8.186c0.908-0.23,1.798-0.492,2.692-0.747l2.332,8.14
	l1.095-0.318l-2.415-8.108c0.893-0.271,1.778-0.556,2.659-0.851l2.67,8.039l1.09-0.367l-2.766-8.008
	c0.884-0.305,1.768-0.617,2.639-0.953l3.005,7.921l1.065-0.413l-3.087-7.893c0.867-0.342,1.736-0.682,2.594-1.049l3.329,7.777
	l1.054-0.459l-3.427-7.752c0.854-0.379,1.71-0.752,2.553-1.155l3.65,7.632l1.036-0.504l-3.748-7.597
	c0.839-0.413,1.67-0.841,2.492-1.279l3.976,7.485l1.007-0.541l-4.048-7.436c0.817-0.447,1.617-0.922,2.419-1.392l4.291,7.317
	l0.98-0.584l-4.355-7.264c0.797-0.479,1.578-0.984,2.359-1.49l4.597,7.141l0.956-0.625l-4.665-7.083
	c0.776-0.515,1.539-1.042,2.3-1.578l4.896,6.937l0.922-0.658l-4.955-6.893c0.755-0.546,1.504-1.097,2.238-1.664l5.172,6.729
	l0.904-0.701l-5.25-6.678c0.732-0.574,1.469-1.149,2.18-1.746l5.44,6.5l0.872-0.731l-5.514-6.459
	c0.705-0.605,1.417-1.203,2.109-1.828l5.695,6.264l0.828-0.76l-5.755-6.237c0.68-0.632,1.353-1.271,2.014-1.919l5.955,6.035
	l0.81-0.807l-6.02-5.97c0.654-0.661,1.29-1.34,1.924-2.019l6.211,5.783l0.767-0.828l-6.241-5.727c0.622-0.684,1.22-1.393,1.82-2.092
	l6.455,5.52l0.73-0.859l-6.492-5.461c0.598-0.711,1.176-1.438,1.748-2.166l6.672,5.256l0.694-0.893l-6.712-5.195
	c0.568-0.734,1.124-1.482,1.671-2.236l6.866,4.988l0.667-0.928l-6.927-4.914c0.539-0.758,1.068-1.517,1.584-2.291l7.063,4.688
	c0.213-0.319,0.423-0.642,0.63-0.967l-7.138-4.591c0.509-0.784,1.022-1.563,1.504-2.367l7.243,4.385
	c0.199-0.331,0.4-0.666,0.596-1.003l-7.328-4.265c0.477-0.805,0.949-1.616,1.403-2.438l7.417,4.08
	c0.184-0.334,0.367-0.674,0.547-1.01l-7.472-3.986c0.438-0.818,0.858-1.648,1.272-2.479l7.592,3.762
	c0.17-0.344,0.338-0.688,0.504-1.032l-7.623-3.653c0.404-0.836,0.773-1.688,1.152-2.539l7.75,3.434l0.454-1.037l-7.771-3.354
	c0.367-0.85,0.712-1.713,1.054-2.578l7.878,3.121c0.143-0.357,0.282-0.715,0.417-1.075l-7.911-3.011
	c0.331-0.871,0.654-1.75,0.961-2.631l7.997,2.782l0.373-1.089l-8.034-2.682c0.299-0.885,0.594-1.771,0.865-2.664l8.092,2.445
	c0.11-0.365,0.221-0.732,0.327-1.104l-8.133-2.349c0.258-0.892,0.53-1.778,0.761-2.684l8.176,2.082l0.275-1.094l-8.212-2.021
	c0.226-0.898,0.435-1.804,0.629-2.716l8.267,1.753l0.23-1.123l-8.277-1.652c0.185-0.914,0.34-1.838,0.494-2.76l8.338,1.424
	l0.184-1.133l-8.336-1.32c0.144-0.914,0.257-1.84,0.373-2.766l8.394,1.061l0.134-1.139l-8.394-0.959
	c0.108-0.927,0.198-1.857,0.276-2.793l8.422,0.729l0.092-1.144l-8.434-0.631c0.069-0.926,0.137-1.853,0.178-2.785l8.43,0.365
	l0.045-1.144l-8.447-0.267C197.085,106.803,197.125,105.878,197.128,104.941z M104.711,13.688c49.809,0,90.383,40.217,90.996,89.881
	h-26.225c-0.614-35.205-29.424-63.657-64.771-63.657c-35.347,0-64.157,28.452-64.771,63.657H13.718
	C14.335,53.904,54.902,13.688,104.711,13.688z M167.684,104.709c0,34.723-28.25,62.973-62.973,62.973
	c-34.723,0-62.975-28.25-62.975-62.973c0-34.724,28.252-62.973,62.975-62.973C139.434,41.736,167.684,69.985,167.684,104.709z
	 M104.711,195.732c-49.959,0-90.632-40.465-91.006-90.338h26.224c0.372,35.414,29.28,64.112,64.782,64.112
	s64.41-28.698,64.782-64.112h26.228C195.348,155.268,154.673,195.732,104.711,195.732z"/>
<path fill="#E85F25" d="M171.812,131.527c-0.541,0.873-0.732,1.961-0.445,3.043l0,0l0,0l0.463,1.791l-1.792,0.5l0,0l0,0
	c-2.09,0.55-3.325,2.687-2.782,4.764c0.559,2.086,2.694,3.327,4.778,2.784l9.354-2.489l-2.48-9.354
	c-0.551-2.082-2.686-3.325-4.772-2.775C173.13,130.061,172.314,130.7,171.812,131.527"/>
<g>
	<path fill="#615D57" d="M63.696,89.311h16.307v3.279H67.649v10.062h11.41v3.234h-11.41v13.701h-3.953V89.311z"/>
	<path fill="#615D57" d="M85.615,89.715c1.977-0.359,4.852-0.629,7.502-0.629c4.178,0,6.918,0.809,8.76,2.471
		c1.482,1.348,2.381,3.414,2.381,5.795c0,3.953-2.516,6.604-5.66,7.682v0.135c2.291,0.809,3.684,2.965,4.402,6.109
		c0.988,4.223,1.707,7.143,2.336,8.311h-4.043c-0.494-0.898-1.168-3.459-1.977-7.232c-0.898-4.178-2.561-5.75-6.109-5.885h-3.684
		v13.117h-3.908V89.715z M89.523,103.506h3.998c4.178,0,6.828-2.291,6.828-5.75c0-3.908-2.83-5.615-6.963-5.615
		c-1.887,0-3.189,0.135-3.863,0.314V103.506z"/>
	<path fill="#615D57" d="M125.413,105.393h-11.725v10.916h13.117v3.279h-17.07V89.311h16.396v3.279h-12.443v9.568h11.725V105.393z"
		/>
	<path fill="#615D57" d="M147.512,105.393h-11.725v10.916h13.117v3.279h-17.07V89.311h16.396v3.279h-12.443v9.568h11.725V105.393z"
		/>
</g>
</svg>
