<?xml version="1.0" encoding="utf-8"?>
<!-- Generator: Adobe Illustrator 16.2.1, SVG Export Plug-In . SVG Version: 6.00 Build 0)  -->
<!DOCTYPE svg PUBLIC "-//W3C//DTD SVG 1.1 Tiny//EN" "http://www.w3.org/Graphics/SVG/1.1/DTD/svg11-tiny.dtd">
<svg version="1.1" baseProfile="tiny" id="Layer_1" xmlns="http://www.w3.org/2000/svg" xmlns:xlink="http://www.w3.org/1999/xlink"
   x="0px" y="0px" width="74px" height="44px" viewBox="0 0 74 44" xml:space="preserve">
<g><polygon fill="#a49e93" points="0,1 1,0 7,6 13,0 14,1 7,8" /></g>
<g><polygon fill="#66615b" points="15,10 16,9 22,15 28,9 29,10 22,17" /></g>
<g><polygon fill="#403d39" points="30,19 31,18 37,24 43,18 44,19 37,26" /></g>
<g><polygon fill="#252422" points="45,28 46,27 52,33 58,27 59,28 52,35" /></g>
<g><polygon fill="#11100f" points="60,37 61,36 67,42 73,36 74,37 67,44" /></g>
</svg>