<?xml version="1.0" encoding="utf-8"?>
<!-- Generator: Adobe Illustrator 16.2.1, SVG Export Plug-In . SVG Version: 6.00 Build 0)  -->
<!DOCTYPE svg PUBLIC "-//W3C//DTD SVG 1.1 Tiny//EN" "http://www.w3.org/Graphics/SVG/1.1/DTD/svg11-tiny.dtd">
<svg version="1.1" baseProfile="tiny" id="Layer_1" xmlns="http://www.w3.org/2000/svg" xmlns:xlink="http://www.w3.org/1999/xlink"
	 x="0px" y="0px" width="49px" height="74px" viewBox="0 0 49 74" xml:space="preserve">
<g><polygon fill="#ffc0a4" points="2,14 0,12 5,7 0,2 2,0 9,7" /></g>
<g><polygon fill="#ff8f5e" points="12,29 10,27 15,22 10,17 12,15 19,22" /></g>
<g><polygon fill="#eb5e28" points="22,44 20,42 25,37 20,32 22,30 29,37" /></g>
<g><polygon fill="#b33c12" points="32,59 30,57 35,52 30,47 32,45 39,52" /></g>
<g><polygon fill="#71220b" points="42,74 40,72 45,67 40,62 42,60 49,67" /></g>
</svg>