<?xml version="1.0" encoding="utf-8"?>
<!-- Generator: Adobe Illustrator 16.2.1, SVG Export Plug-In . SVG Version: 6.00 Build 0)  -->
<!DOCTYPE svg PUBLIC "-//W3C//DTD SVG 1.1 Tiny//EN" "http://www.w3.org/Graphics/SVG/1.1/DTD/svg11-tiny.dtd">
<svg version="1.1" baseProfile="tiny" id="Layer_1" xmlns="http://www.w3.org/2000/svg" xmlns:xlink="http://www.w3.org/1999/xlink"
	 x="0px" y="0px" width="44px" height="74px" viewBox="0 0 44 74" xml:space="preserve">
<g><polygon fill="#ffc0a4" points="1,14 0,13 6,7 0,1 0.904,0 8,7 " /></g>
<g><polygon fill="#ff8f5e" points="10,29 9,28 15,22 9,16 10,15 17,22" /></g>
<g><polygon fill="#eb5e28" points="19,44 18,43 24,37 18,31 19,30 26,37" /></g>
<g><polygon fill="#b33c12" points="28,59 27,58 33,52 27,46 28,45 35,52" /></g>
<g><polygon fill="#71220b" points="37,74 36,73 42,67 36,61 37,60 44,67" /></g>
</svg>