<?xml version="1.0" encoding="utf-8"?>
<!-- Generator: Adobe Illustrator 16.2.1, SVG Export Plug-In . SVG Version: 6.00 Build 0)  -->
<!DOCTYPE svg PUBLIC "-//W3C//DTD SVG 1.1 Tiny//EN" "http://www.w3.org/Graphics/SVG/1.1/DTD/svg11-tiny.dtd">
<svg version="1.1" baseProfile="tiny" id="Layer_1" xmlns="http://www.w3.org/2000/svg" xmlns:xlink="http://www.w3.org/1999/xlink"
	 x="0px" y="0px" width="74px" height="44px" viewBox="0 0 74 44" xml:space="preserve">
<g><polygon fill="#ffc0a4" points="14,7 13,8 7,2 1,8 0,7 7,0" /></g>
<g><polygon fill="#ff8f5e" points="29,16 28,17 22,11 16,17 15,16 22,9" /></g>
<g><polygon fill="#eb5e28" points="44,25 43,26 37,20 31,26 30,25 37,18" /></g>
<g><polygon fill="#b33c12" points="59,34 58,35 52,29 46,35 45,34 52,27" /></g>
<g><polygon fill="#71220b" points="74,43 73,44 67,38 61,44 60,43 67,36" /></g>
</svg>
